HIERARCHY
ROOT Hips
{
  OFFSET 5.72205e-005 65.662 3.42586
  CHANNELS 6 Xposition Yposition Zposition Zrotation Xrotation Yrotation
  JOINT Chest
  {
    OFFSET 0 8.7983 -4.7612
    CHANNELS 3 Zrotation Xrotation Yrotation
    JOINT Chest2
    {
      OFFSET 0 8.0291 0.4195
      CHANNELS 3 Zrotation Xrotation Yrotation
      JOINT Chest3
      {
        OFFSET 0 9.9351 -2.2114
        CHANNELS 3 Zrotation Xrotation Yrotation
        JOINT Neck
        {
          OFFSET 0 22.3885 -0.4656
          CHANNELS 3 Zrotation Xrotation Yrotation
          JOINT Head
          {
            OFFSET -0.0001 12.643 3.4389
            CHANNELS 3 Zrotation Xrotation Yrotation
            End Site
            {
              OFFSET 0.0001 17.6655 0.5274
            }
          }
        }
        JOINT LeftCollar
        {
          OFFSET 2.2603 21.606 7.4023
          CHANNELS 3 Zrotation Xrotation Yrotation
          JOINT LeftShoulder
          {
            OFFSET 13.5163 -1.1332 -5.0146
            CHANNELS 3 Zrotation Xrotation Yrotation
            JOINT LeftElbow
            {
              OFFSET -0.0995 -28.05 -0.2431
              CHANNELS 3 Zrotation Xrotation Yrotation
              JOINT LeftWrist
              {
                OFFSET 0.0679 -23.3996 -0.1402
                CHANNELS 3 Zrotation Xrotation Yrotation
                JOINT LeftFinger1
                {
                  OFFSET 0.7932 -9.069 2.5189
                  CHANNELS 3 Zrotation Xrotation Yrotation
                  JOINT LeftFinger11
                  {
                    OFFSET -0.8272 -3.3923 0.5977
                    CHANNELS 3 Zrotation Xrotation Yrotation
                    JOINT LeftFinger12
                    {
                      OFFSET -0.5649 -2.3158 0.4082
                      CHANNELS 3 Zrotation Xrotation Yrotation
                      End Site
                      {
                        OFFSET -0.4919 -1.6479 0.2673
                      }
                    }
                  }
                }
                JOINT LeftFinger2
                {
                  OFFSET 0.9159 -9.2044 0.2193
                  CHANNELS 3 Zrotation Xrotation Yrotation
                  JOINT LeftFinger21
                  {
                    OFFSET 0.0117 -4.1944 -0.0248
                    CHANNELS 3 Zrotation Xrotation Yrotation
                    JOINT LeftFinger22
                    {
                      OFFSET 0.0071 -2.3249 -0.0142
                      CHANNELS 3 Zrotation Xrotation Yrotation
                      End Site
                      {
                        OFFSET -0.1475 -2.0882 0.0028
                      }
                    }
                  }
                }
                JOINT LeftFinger3
                {
                  OFFSET 0.6113 -8.7231 -2.0637
                  CHANNELS 3 Zrotation Xrotation Yrotation
                  JOINT LeftFinger31
                  {
                    OFFSET -0.1927 -3.8059 -0.2383
                    CHANNELS 3 Zrotation Xrotation Yrotation
                    JOINT LeftFinger32
                    {
                      OFFSET -0.1091 -2.1688 -0.1362
                      CHANNELS 3 Zrotation Xrotation Yrotation
                      End Site
                      {
                        OFFSET -0.2358 -1.9176 -0.0906
                      }
                    }
                  }
                }
                JOINT LeftFinger4
                {
                  OFFSET -0.6151 -8.0947 -3.5641
                  CHANNELS 3 Zrotation Xrotation Yrotation
                  JOINT LeftFinger41
                  {
                    OFFSET -0.4882 -2.341 -0.6462
                    CHANNELS 3 Zrotation Xrotation Yrotation
                    JOINT LeftFinger42
                    {
                      OFFSET -0.3575 -1.7167 -0.4742
                      CHANNELS 3 Zrotation Xrotation Yrotation
                      End Site
                      {
                        OFFSET -0.4187 -1.5237 -0.3496
                      }
                    }
                  }
                }
                JOINT LeftFinger0
                {
                  OFFSET -1.42 -1.8761 1.4223
                  CHANNELS 3 Zrotation Xrotation Yrotation
                  JOINT LeftFinger01
                  {
                    OFFSET -1.1471 -3.4929 2.6334
                    CHANNELS 3 Zrotation Xrotation Yrotation
                    JOINT LeftFinger02
                    {
                      OFFSET -0.823 -2.3 1.6571
                      CHANNELS 3 Zrotation Xrotation Yrotation
                      End Site
                      {
                        OFFSET -0.5822 -1.6914 1.1582
                      }
                    }
                  }
                }
              }
            }
          }
        }
        JOINT RightCollar
        {
          OFFSET -2.2603 21.606 7.4023
          CHANNELS 3 Zrotation Xrotation Yrotation
          JOINT RightShoulder
          {
            OFFSET -13.5187 -1.1334 -5.0155
            CHANNELS 3 Zrotation Xrotation Yrotation
            JOINT RightElbow
            {
              OFFSET 0.0994 -28.0499 -0.2431
              CHANNELS 3 Zrotation Xrotation Yrotation
              JOINT RightWrist
              {
                OFFSET -0.0679 -23.3996 -0.1402
                CHANNELS 3 Zrotation Xrotation Yrotation
                JOINT RightFinger1
                {
                  OFFSET -0.7932 -9.0691 2.5189
                  CHANNELS 3 Zrotation Xrotation Yrotation
                  JOINT RightFinger11
                  {
                    OFFSET 0.8272 -3.3923 0.5977
                    CHANNELS 3 Zrotation Xrotation Yrotation
                    JOINT RightFinger12
                    {
                      OFFSET 0.565 -2.3158 0.4082
                      CHANNELS 3 Zrotation Xrotation Yrotation
                      End Site
                      {
                        OFFSET 0.4919 -1.6479 0.2673
                      }
                    }
                  }
                }
                JOINT RightFinger2
                {
                  OFFSET -0.916 -9.2044 0.2193
                  CHANNELS 3 Zrotation Xrotation Yrotation
                  JOINT RightFinger21
                  {
                    OFFSET -0.0117 -4.1944 -0.0248
                    CHANNELS 3 Zrotation Xrotation Yrotation
                    JOINT RightFinger22
                    {
                      OFFSET -0.0071 -2.3249 -0.0142
                      CHANNELS 3 Zrotation Xrotation Yrotation
                      End Site
                      {
                        OFFSET 0.1475 -2.0882 0.0028
                      }
                    }
                  }
                }
                JOINT RightFinger3
                {
                  OFFSET -0.6113 -8.7231 -2.0637
                  CHANNELS 3 Zrotation Xrotation Yrotation
                  JOINT RightFinger31
                  {
                    OFFSET 0.1927 -3.8059 -0.2383
                    CHANNELS 3 Zrotation Xrotation Yrotation
                    JOINT RightFinger32
                    {
                      OFFSET 0.1091 -2.1688 -0.1362
                      CHANNELS 3 Zrotation Xrotation Yrotation
                      End Site
                      {
                        OFFSET 0.2358 -1.9176 -0.0906
                      }
                    }
                  }
                }
                JOINT RightFinger4
                {
                  OFFSET 0.6151 -8.0947 -3.564
                  CHANNELS 3 Zrotation Xrotation Yrotation
                  JOINT RightFinger41
                  {
                    OFFSET 0.4882 -2.341 -0.6462
                    CHANNELS 3 Zrotation Xrotation Yrotation
                    JOINT RightFinger42
                    {
                      OFFSET 0.3574 -1.7166 -0.4742
                      CHANNELS 3 Zrotation Xrotation Yrotation
                      End Site
                      {
                        OFFSET 0.4187 -1.5237 -0.3496
                      }
                    }
                  }
                }
                JOINT RightFinger0
                {
                  OFFSET 1.4199 -1.8761 1.4221
                  CHANNELS 3 Zrotation Xrotation Yrotation
                  JOINT RightFinger01
                  {
                    OFFSET 1.1472 -3.4929 2.6336
                    CHANNELS 3 Zrotation Xrotation Yrotation
                    JOINT RightFinger02
                    {
                      OFFSET 0.8229 -2.3 1.6571
                      CHANNELS 3 Zrotation Xrotation Yrotation
                      End Site
                      {
                        OFFSET 0.5822 -1.6914 1.1582
                      }
                    }
                  }
                }
              }
            }
          }
        }
      }
    }
  }
  JOINT RightHip
  {
    OFFSET -9.412 3.9771 -0.7758
    CHANNELS 3 Zrotation Xrotation Yrotation
    JOINT RightKnee
    {
      OFFSET -0.7531 -40.938 0
      CHANNELS 3 Zrotation Xrotation Yrotation
      JOINT RightAnkle
      {
        OFFSET 0 -40.1986 0
        CHANNELS 3 Zrotation Xrotation Yrotation
        JOINT RightToe
        {
          OFFSET 0 -4.4182 9.239
          CHANNELS 3 Zrotation Xrotation Yrotation
          End Site
          {
            OFFSET 0 0 6.1981
          }
        }
      }
    }
  }
  JOINT LeftHip
  {
    OFFSET 9.4119 3.9773 -0.7758
    CHANNELS 3 Zrotation Xrotation Yrotation
    JOINT LeftKnee
    {
      OFFSET 0.7532 -40.9383 0
      CHANNELS 3 Zrotation Xrotation Yrotation
      JOINT LeftAnkle
      {
        OFFSET 0 -40.1986 0
        CHANNELS 3 Zrotation Xrotation Yrotation
        JOINT LeftToe
        {
          OFFSET 0 -4.4182 9.239
          CHANNELS 3 Zrotation Xrotation Yrotation
          End Site
          {
            OFFSET 0 0 6.1981
          }
        }
      }
    }
  }
}
MOTION
Frames:	4
Frame Time:	0.0333333
-0.0209642 28.8503 6.76774 -7.78789e-015 -6.27197 180 -0.0230861 -1.24907 -0.745844 -0.0624596 -2.49772 -1.49272 -0.0624596 -2.49772 -1.49272 12.1646 42.0753 -8.22115 1.8968e-007 -30.8017 -7.28291e-007 -25.3924 -8.79937 -15.0675 51.0889 -52.5429 21.2183 -41.4213 7.02916 -54.4064 -32.6221 -2.15729 -3.08737 -1.15081e-006 -1.19744e-006 1.69799e-006 3.18055e-015 9.93923e-015 -0 3.18055e-015 5.1684e-015 -3.18055e-015 -1.15081e-006 -1.19744e-006 1.69799e-006 -0.0128191 0.00231719 6.50877e-005 2.99312e-006 1.26906e-006 5.96251e-006 -1.15081e-006 -1.19744e-006 1.69799e-006 -0.0160136 0.00299386 0.000857195 -1.59028e-015 5.96354e-015 -3.18055e-015 -1.15081e-006 -1.19744e-006 1.69799e-006 -0.012622 0.00312729 0.00283862 1.59028e-015 -1.11319e-014 -3.18055e-015 -1.15081e-006 -1.19744e-006 1.69799e-006 3.18055e-015 9.93923e-015 -0 3.18055e-015 5.1684e-015 -3.18055e-015 -9.71755 -9.14128 1.41344 -19.4742 -78.2809 7.96469 72.5365 -35.7268 7.03138 23.1873 -16.3453 -9.5333 -4.13804e-033 1.49089e-016 1.59028e-015 -2.63202e-007 1.73155e-005 -1.68038e-006 1.59028e-015 -1.68967e-015 -7.95139e-016 -4.13804e-033 1.49089e-016 1.59028e-015 0.0129322 0.00226485 -7.79465e-005 3.18055e-015 3.23025e-015 -0 -4.13804e-033 1.49089e-016 1.59028e-015 0.0163417 0.00306262 -0.000872797 7.95139e-016 -6.95746e-016 7.95139e-016 -4.13804e-033 1.49089e-016 1.59028e-015 0.0145921 0.00374137 -0.00326583 1.59028e-015 -2.03754e-015 7.95139e-016 -4.13804e-033 1.49089e-016 1.59028e-015 -2.63202e-007 1.73155e-005 -1.68038e-006 1.59028e-015 -1.68967e-015 -7.95139e-016 -5.54442 -17.5859 -3.32462 6.14091 26.9087 3.22576 1.98024 -15.4492 -3.7375 2.28353e-010 1.03304e-011 2.13226e-007 5.86991 -15.26 2.88546 -5.1634 22.2261 -3.55096 -3.3366 -12.7431 3.94981 1.27787e-006 -1.3843e-007 1.26949e-008 
-0.0208964 28.8339 6.88971 -7.83099e-015 -6.61949 180 -0.025404 -1.31864 -0.743485 -0.0679531 -2.63684 -1.48815 -0.067953 -2.63684 -1.48815 12.0989 41.735 -8.12282 6.18849e-007 -29.2716 -2.16347e-006 -25.3183 -8.89775 -14.8315 50.9243 -52.7015 21.0925 -41.4212 7.02918 -54.4064 -32.6221 -2.15734 -3.08736 -3.18055e-015 -1.47101e-014 3.18055e-015 -3.18055e-015 -1.51076e-014 3.18055e-015 -3.18055e-015 -1.39149e-014 6.36111e-015 -3.18055e-015 -1.47101e-014 3.18055e-015 -0.0128542 0.00232827 9.0603e-005 -0 -2.38542e-015 -0 -3.18055e-015 -1.47101e-014 3.18055e-015 -0.0160605 0.00299397 0.000854899 -5.33293e-007 -3.41851e-006 -9.15038e-006 -3.18055e-015 -1.47101e-014 3.18055e-015 -0.0126159 0.00312817 0.00282486 3.00386e-006 -1.70891e-006 5.96597e-006 -3.18055e-015 -1.47101e-014 3.18055e-015 -3.18055e-015 -1.51076e-014 3.18055e-015 -3.18055e-015 -1.39149e-014 6.36111e-015 -9.74158 -9.28561 0.81544 -19.4744 -78.2809 7.96457 72.5365 -35.7268 7.03146 24.5018 -16.1455 -9.59741 1.03368e-014 1.2921e-015 6.36111e-015 1.03368e-014 1.49089e-015 5.56597e-015 1.13753e-005 0.00010684 -6.45744e-006 1.03368e-014 1.2921e-015 6.36111e-015 0.0129574 0.00237694 -8.63041e-005 -1.59028e-015 -3.97569e-015 1.59028e-015 1.03368e-014 1.2921e-015 6.36111e-015 0.0163443 0.00311745 -0.000886484 -7.95139e-016 -4.77083e-015 7.95139e-016 1.03368e-014 1.2921e-015 6.36111e-015 0.0145557 0.00371849 -0.0032559 2.8219e-007 -3.13454e-005 -2.87248e-006 1.03368e-014 1.2921e-015 6.36111e-015 1.03368e-014 1.49089e-015 5.56597e-015 1.13753e-005 0.00010684 -6.45744e-006 -5.48654 -18.0647 -2.91552 6.14062 26.9061 3.22641 1.96928 -15.4627 -4.17825 -4.2486e-007 7.50652e-009 4.26179e-007 5.82626 -15.7473 2.4845 -5.16328 22.2244 -3.55173 -3.33164 -12.7747 4.38555 -4.25972e-007 1.94115e-008 -3.4601e-009 
-0.0208335 28.8195 6.99882 -7.86962e-015 -6.93056 180 -0.0274729 -1.38078 -0.741369 -0.0728517 -2.76106 -1.48404 -0.0728518 -2.76106 -1.48404 12.0412 41.4309 -8.0359 1.1402e-007 -27.9007 -1.92627e-007 -25.2518 -8.98544 -14.6206 50.7762 -52.8428 20.9791 -41.4213 7.02917 -54.4064 -32.6221 -2.1573 -3.08737 -1.59028e-015 2.78299e-015 -0 3.53113e-031 -3.18055e-015 6.36111e-015 -1.59028e-015 -3.97569e-015 9.54166e-015 -1.59028e-015 2.78299e-015 -0 -0.0128727 0.00232788 9.40182e-005 -1.59028e-015 1.59028e-015 -0 -1.59028e-015 2.78299e-015 -0 -0.0159971 0.00297702 0.00085992 -2.07693e-006 -2.88036e-006 2.45073e-006 -1.59028e-015 2.78299e-015 -0 -0.0125895 0.00311733 0.00282935 7.50364e-031 6.75868e-015 -6.36111e-015 -1.59028e-015 2.78299e-015 -0 3.53113e-031 -3.18055e-015 6.36111e-015 -1.59028e-015 -3.97569e-015 9.54166e-015 -9.76424 -9.41455 0.28075 -19.4743 -78.2809 7.96466 72.5366 -35.7268 7.03144 25.678 -15.9677 -9.65865 -3.18055e-015 4.07509e-015 -0 -3.97569e-015 -2.18663e-015 -0 -3.18055e-015 2.98177e-015 -0 -3.18055e-015 4.07509e-015 -0 0.0129583 0.00228482 -8.40662e-005 1.59028e-015 -2.28602e-015 -7.95139e-016 -3.18055e-015 4.07509e-015 -0 0.0163079 0.00302175 -0.000876644 -7.95139e-016 3.47873e-015 7.95139e-016 -3.18055e-015 4.07509e-015 -0 0.0145982 0.00360443 -0.00327045 1.23382e-005 9.18783e-005 -4.1807e-006 -3.18055e-015 4.07509e-015 -0 -3.97569e-015 -2.18663e-015 -0 -3.18055e-015 2.98177e-015 -0 -5.43163 -18.4944 -2.54853 6.14025 26.9059 3.22672 1.95931 -15.4747 -4.57201 7.75648e-010 -1.33185e-008 2.13227e-007 5.78425 -16.183 2.12503 -5.16316 22.2236 -3.55232 -3.32689 -12.8031 4.77487 1.2787e-006 -1.3832e-007 -2.04897e-007 
-0.0207686 28.8054 7.10799 -7.9083e-015 -7.24155 180 -0.0295416 -1.44298 -0.739285 -0.0777488 -2.88545 -1.48002 -0.0777487 -2.88546 -1.48002 11.9843 41.127 -7.94962 -4.70196e-007 -26.5266 1.42004e-006 -25.185 -9.07262 -14.4092 50.6271 -52.9839 20.8646 -41.4212 7.02912 -54.4064 -32.6221 -2.15729 -3.08736 1.59028e-015 3.18055e-015 3.18055e-015 1.54597e-006 -6.70938e-006 -2.43072e-006 8.59214e-006 -6.42078e-007 -4.91313e-006 1.59028e-015 3.18055e-015 3.18055e-015 -0.0127959 0.00231937 7.26677e-005 -3.18055e-015 4.77083e-015 -0 1.59028e-015 3.18055e-015 3.18055e-015 -0.0160029 0.00299082 0.00085107 -5.95877e-031 1.07344e-014 3.18055e-015 1.59028e-015 3.18055e-015 3.18055e-015 -0.01263 0.00312709 0.00282983 1.59028e-015 -5.96354e-015 -0 1.59028e-015 3.18055e-015 3.18055e-015 1.54597e-006 -6.70938e-006 -2.43072e-006 8.59214e-006 -6.42078e-007 -4.91313e-006 -9.7881 -9.54297 -0.254121 -19.4743 -78.2809 7.9647 72.5365 -35.7268 7.0314 26.8554 -15.791 -9.7238 -1.15783e-005 -0.000126125 2.87664e-006 -3.18055e-015 -5.76476e-015 -7.95139e-016 1.15783e-005 0.000126125 -2.87667e-006 -1.15783e-005 -0.000126125 2.87664e-006 0.0129219 0.00244723 -8.77309e-005 1.59028e-015 1.39149e-015 2.38542e-015 -1.15783e-005 -0.000126125 2.87664e-006 0.0163559 0.00314971 -0.000872326 1.37935e-032 -9.93923e-016 7.95139e-016 -1.15783e-005 -0.000126125 2.87664e-006 0.0145715 0.00366258 -0.00326109 -1.59028e-015 -6.36111e-015 2.38542e-015 -1.15783e-005 -0.000126125 2.87664e-006 -3.18055e-015 -5.76476e-015 -7.95139e-016 1.15783e-005 0.000126125 -2.87667e-006 -5.37374 -18.922 -2.18009 6.14003 26.9041 3.2272 1.94915 -15.4868 -4.96587 -1.27671e-006 -4.22082e-009 2.15555e-007 5.73923 -16.6178 1.76431 -5.16302 22.2219 -3.55301 -3.32189 -12.8314 5.16434 -1.87137e-016 0 -0 
